<svg width="700" height="588" viewBox="0 0 700 588" fill="none" xmlns="http://www.w3.org/2000/svg">
<g clip-path="url(#clip0_243_17)">
<path d="M610.033 271.691C606.446 201.261 577.075 131.018 524.139 83.5195C440.903 8.84352 278.77 10.4429 193.347 80.6971C163.716 105.064 146.279 137.263 139.459 174.612C132.169 214.585 141.705 258.014 126.019 296.517C112.545 329.574 79.3277 349.848 67.0169 383.294C52.3192 423.231 60.1736 473.963 92.0853 503.645C132.957 541.666 205.904 556.319 259.651 561.857C423.807 578.78 596.887 483.407 609.715 305.16C610.515 294.035 610.621 282.852 610.056 271.715L610.033 271.691Z" fill="#FF595E"/>
<path opacity="0.7" d="M610.033 271.691C606.446 201.261 577.075 131.018 524.139 83.5195C440.903 8.84352 278.77 10.4429 193.347 80.6971C163.716 105.064 146.279 137.263 139.459 174.612C132.169 214.585 141.705 258.014 126.019 296.517C112.545 329.574 79.3277 349.848 67.0169 383.294C52.3192 423.231 60.1736 473.963 92.0853 503.645C132.957 541.666 205.904 556.319 259.651 561.857C423.807 578.78 596.887 483.407 609.715 305.16C610.515 294.035 610.621 282.852 610.056 271.715L610.033 271.691Z" fill="#F7F7F7"/>
<path d="M520.318 223.863V98.9839H533.558V86.1068H573.288V96.4085H583.694V310.123H612.079V347.461H630.045" stroke="#1F1F1F" stroke-miterlimit="10"/>
<path d="M391.672 240.598V144.037H419.103V167.215H432.343V133.747H461.668V277.936H486.266V329.433H506.126V249.618H520.318V232.872" stroke="#1F1F1F" stroke-miterlimit="10"/>
<path d="M288.564 176.224V347.461H304.638V247.042H327.343V332.008H391.672V256.051" stroke="#1F1F1F" stroke-miterlimit="10"/>
<path d="M238.428 302.397V91.2576H288.564V162.065" stroke="#1F1F1F" stroke-miterlimit="10"/>
<path d="M140.999 240.598V265.059H155.18V154.338H211.936V325.576H238.427V308.841" stroke="#1F1F1F" stroke-miterlimit="10"/>
<path d="M79.5041 347.461H100.316V187.819H140.999V227.721" stroke="#1F1F1F" stroke-miterlimit="10"/>
<path d="M419.433 98.2195C419.433 98.2195 413.836 87.0357 403.348 88.4234C392.859 89.8229 391.46 100.313 388.662 101.007C385.863 101.7 379.573 97.5139 375.375 99.6072C371.177 101.7 368.379 106.604 368.379 106.604C368.379 106.604 362.782 104.511 358.584 106.604C354.387 108.698 352.294 112.896 352.294 112.896H439.704C439.704 112.896 439.01 101.712 432.708 99.6072C426.417 97.5139 422.219 103.806 419.421 98.2077L419.433 98.2195Z" stroke="#1F1F1F" stroke-miterlimit="10"/>
<path d="M555.969 389.632L533.275 472.329H582.789L560.096 389.632C559.52 387.539 556.545 387.539 555.969 389.632Z" fill="#F7F7F7" stroke="#1F1F1F" stroke-miterlimit="10"/>
<path d="M533.275 472.329H575.711L554.499 395.007L533.275 472.329Z" fill="#1F1F1F" stroke="#1F1F1F" stroke-miterlimit="10"/>
<path d="M542.341 439.307H573.723L569.502 423.901H546.562L542.341 439.307Z" fill="#F7F7F7" stroke="#1F1F1F" stroke-miterlimit="10"/>
<path d="M588.621 470.941H527.432C525.597 470.941 524.104 472.434 524.104 474.269C524.104 476.104 525.597 477.597 527.432 477.597H588.621C590.455 477.597 591.949 476.104 591.949 474.269C591.949 472.434 590.455 470.941 588.621 470.941Z" fill="#F7F7F7" stroke="#1F1F1F" stroke-miterlimit="10"/>
<path d="M573.641 474.269C573.641 472.434 572.148 470.941 570.314 470.941H527.443C525.609 470.941 524.116 472.434 524.116 474.269C524.116 476.104 525.609 477.597 527.443 477.597H570.314C572.148 477.597 573.641 476.104 573.641 474.269Z" fill="#1F1F1F" stroke="#1F1F1F" stroke-miterlimit="10"/>
<path d="M157.484 477.468C157.355 477.468 157.226 477.456 157.096 477.444C153.228 477.138 149.841 474.904 148.042 471.458L99.5047 379.06L93.6844 378.131C92.4028 377.931 91.5327 376.72 91.7326 375.438C91.9325 374.156 93.1318 373.274 94.4252 373.486L101.41 374.603C102.139 374.721 102.773 375.179 103.114 375.838L152.205 469.271C153.251 471.27 155.227 472.576 157.473 472.752C160.518 472.975 163.375 471.047 164.257 468.119L174.957 432.65C175.133 432.051 175.545 431.545 176.097 431.251C176.65 430.957 177.297 430.898 177.896 431.075L248.187 452.489L225.482 408.366C224.882 407.213 225.341 405.791 226.493 405.203C227.645 404.603 229.068 405.061 229.656 406.214L254.912 455.288C255.348 456.123 255.23 457.146 254.63 457.876C254.031 458.605 253.043 458.899 252.138 458.616L178.778 436.261L168.76 469.471C167.279 474.387 162.576 477.691 157.473 477.456L157.484 477.468Z" fill="#F7F7F7" stroke="#1F1F1F" stroke-miterlimit="10"/>
<path d="M93.8726 379.919C93.7432 379.919 93.6256 379.907 93.4963 379.883L70.2622 376.708C68.0163 376.402 66.429 374.321 66.7465 372.075C67.0522 369.828 69.1216 368.241 71.3792 368.558L94.6133 371.734C96.8591 372.039 98.4465 374.121 98.129 376.367C97.8351 378.496 95.9655 380.013 93.8726 379.919Z" fill="#1F1F1F" stroke="#1F1F1F" stroke-miterlimit="10"/>
<path d="M273.608 457.323C274.137 445.845 265.248 436.108 253.772 435.579C242.296 435.049 232.56 443.94 232.031 455.418C231.502 466.896 240.391 476.633 251.867 477.162C263.343 477.691 273.079 468.801 273.608 457.323Z" fill="#1F1F1F" stroke="#1F1F1F" stroke-miterlimit="10"/>
<path d="M257.88 463.313C261.71 460.518 262.55 455.148 259.756 451.318C256.962 447.487 251.593 446.647 247.763 449.442C243.933 452.236 243.093 457.606 245.887 461.436C248.681 465.267 254.05 466.107 257.88 463.313Z" fill="#F7F7F7" stroke="#1F1F1F" stroke-miterlimit="10"/>
<path d="M126.349 379.342C126.349 379.342 172.076 354.341 182.905 354.423C193.735 354.505 232.772 384.623 232.772 384.623L126.349 379.342Z" fill="#1F1F1F" stroke="#1F1F1F" stroke-miterlimit="10"/>
<path d="M119 376.085L133.121 431.733L215.029 435.485L247.893 381.977L119 376.085Z" fill="#F7F7F7" stroke="#1F1F1F" stroke-miterlimit="10"/>
<path d="M74.3775 477.962H612.137" stroke="#1F1F1F" stroke-miterlimit="10"/>
<path d="M363.993 441.741L362.394 475.116C362.394 475.116 359.454 480.725 358.126 482.595C356.785 484.465 350.918 485.265 348.778 488.734C346.638 492.203 347.438 496.742 347.438 496.742C347.438 496.742 349.307 498.883 354.116 498.883H368.261C371.459 498.883 374.669 498.083 375.998 497.813C377.327 497.542 380.537 496.742 381.336 495.672C382.136 494.602 383.476 490.862 383.206 486.064C382.935 481.254 381.066 476.986 381.066 474.316C381.066 471.647 390.143 444.152 390.143 444.152L363.981 441.753L363.993 441.741Z" fill="#1F1F1F" stroke="#1F1F1F" stroke-miterlimit="10"/>
<path d="M503.868 440.941C503.868 440.941 503.868 472.975 504.139 473.775C504.409 474.575 512.675 480.455 512.675 480.455C512.675 480.455 526.291 482.595 527.89 484.465C529.489 486.335 530.03 490.333 529.489 491.674C528.948 493.014 516.144 494.614 511.605 494.614C507.066 494.614 501.458 493.544 501.458 493.544C501.458 493.544 499.059 492.203 497.448 493.014L495.849 493.814H483.574C483.574 493.814 481.434 486.605 481.434 481.795C481.434 476.986 483.033 471.388 483.033 471.388L480.893 445.222L503.845 440.953L503.868 440.941Z" fill="#1F1F1F" stroke="#1F1F1F" stroke-miterlimit="10"/>
<path d="M388.568 308.865C388.568 308.865 379.584 331.326 379.961 338.441C380.337 345.556 376.962 390.114 376.962 390.114C376.962 390.114 367.979 408.836 365.733 419.326C363.487 429.816 361.994 441.423 363.111 444.787C364.228 448.15 379.208 451.149 385.946 449.655C392.683 448.162 396.798 443.293 397.175 442.164C397.551 441.035 401.29 428.311 401.666 421.949C402.042 415.587 402.042 407.343 402.042 407.343C402.042 407.343 408.404 394.607 410.273 388.245C412.143 381.882 430.862 358.668 430.862 358.668L469.793 408.096C469.793 408.096 477.283 427.946 477.283 432.062C477.283 436.178 476.53 444.798 481.022 447.409C485.514 450.032 494.873 449.279 499.741 447.786C504.609 446.292 508.348 442.917 509.477 433.18C510.606 423.442 507.607 420.82 507.607 409.965C507.607 399.111 498.624 361.667 491.134 351.93C483.644 342.192 472.415 329.092 472.415 329.092C472.415 329.092 443.055 338.076 433.401 334.525C423.748 330.973 388.556 308.876 388.556 308.876L388.568 308.865Z" fill="#1F1F1F" stroke="#1F1F1F" stroke-miterlimit="10"/>
<path d="M498.33 312.863C498.33 312.863 495.449 324.882 495.449 332.585C495.449 340.287 494.967 371.545 494.967 373.709C494.967 375.873 491.122 383.329 489.676 385.493C488.23 387.657 490.64 391.984 490.64 391.984C490.64 391.984 495.931 397.276 497.613 398.241C499.294 399.205 503.139 399.205 504.35 397.759C505.55 396.312 510.841 391.502 511.088 389.338C511.335 387.175 506.526 375.626 506.526 374.191C506.526 372.757 516.861 334.031 516.861 327.304C516.861 320.578 517.096 310.958 517.096 310.958L498.342 312.887L498.33 312.863Z" fill="#F7F7F7" stroke="#1F1F1F" stroke-miterlimit="10"/>
<path d="M504.339 397.758C505.538 396.312 510.829 391.502 511.076 389.338C511.311 387.174 506.502 375.626 506.502 374.191C506.502 373.956 506.772 372.78 507.208 370.934L495.003 370.134C494.979 372.039 494.967 373.333 494.967 373.709C494.967 375.873 491.122 383.329 489.676 385.493C488.23 387.657 490.64 391.984 490.64 391.984C490.64 391.984 495.931 397.276 497.613 398.241C499.294 399.205 503.139 399.205 504.35 397.758H504.339Z" fill="#FF595E" stroke="#1F1F1F" stroke-miterlimit="10"/>
<path d="M522.611 254.922C522.611 254.922 523.575 261.178 523.328 269.104C523.093 277.042 522.611 284.016 522.611 284.016L525.256 311.664C525.256 311.664 510.594 316.238 504.821 316.238C499.047 316.238 495.92 314.556 495.92 314.556V296.517C495.92 296.517 500.964 286.18 504.339 278.006C507.701 269.833 515.873 253.957 516.355 252.993C516.837 252.029 522.611 254.922 522.611 254.922Z" fill="#D9D9D9" stroke="#1F1F1F" stroke-miterlimit="10"/>
<path d="M503.374 288.579C503.374 288.579 513.957 286.415 519.001 279.441" stroke="#1F1F1F" stroke-miterlimit="10"/>
<path d="M518.766 284.251C518.766 284.251 515.638 286.897 508.43 288.579" stroke="#1F1F1F" stroke-miterlimit="10"/>
<path d="M494.373 218.305C494.373 218.305 475.619 214.941 465.284 212.048C454.948 209.167 448.693 208.438 444.601 210.602C440.509 212.766 415.747 259.418 413.83 262.064C411.902 264.71 396.522 282.02 392.43 292.604C388.338 303.188 385.458 315.925 385.458 315.925C385.458 315.925 413.101 346.947 426.811 348.629L431.138 349.111L440.039 336.61L440.274 347.912C440.274 347.912 446.529 346.712 456.618 342.138C466.718 337.563 477.771 330.354 478.018 329.155C478.265 327.955 475.372 326.026 475.372 326.026C475.372 326.026 482.11 314.96 485.226 312.314C488.353 309.668 503.016 290.911 503.016 290.911C503.016 290.911 518.642 266.627 519.124 257.489C519.606 248.352 521.053 235.851 517.925 231.276C514.797 226.701 494.362 218.293 494.362 218.293L494.373 218.305Z" fill="#FF595E" stroke="#1F1F1F" stroke-miterlimit="10"/>
<path d="M477.647 328.739C477.883 327.54 475.002 325.611 475.002 325.611C475.002 325.611 476.672 322.871 478.729 319.79C466.948 321.177 450.921 321.812 437.811 317.814C424.583 313.769 409.321 295.705 398.691 280.582C395.975 284.498 393.588 288.426 392.236 291.742C403.183 306.642 418.857 324.306 434.377 329.057C443.09 331.714 452.685 332.632 461.727 332.632C465.795 332.632 469.746 332.443 473.462 332.161C475.954 330.48 477.565 329.198 477.647 328.751V328.739Z" fill="#F7F7F7" stroke="#1F1F1F" stroke-miterlimit="10"/>
<path d="M461.233 291.695C446.759 285.356 429.886 262.177 421.044 248.207C418.245 253.24 415.905 257.462 414.565 259.802C423.877 273.785 440.221 295.341 456.518 302.479C462.844 305.243 472.145 306.63 484.326 306.63C486.066 306.63 487.865 306.595 489.723 306.536C493.004 302.644 497.048 297.587 499.729 294.2C484.303 295.399 469.311 295.235 461.221 291.707L461.233 291.695Z" fill="#F7F7F7" stroke="#1F1F1F" stroke-miterlimit="10"/>
<path d="M525.021 499.553C524.433 499.553 523.857 499.259 523.516 498.718L491.299 446.539C490.781 445.704 491.04 444.622 491.875 444.116C492.698 443.611 493.791 443.858 494.297 444.693L526.514 496.872C527.032 497.707 526.773 498.789 525.938 499.294C525.644 499.471 525.327 499.553 525.009 499.553H525.021Z" fill="#F7F7F7" stroke="#1F1F1F" stroke-miterlimit="10"/>
<path d="M417.54 345.085C417.54 345.085 412.248 351.095 412.495 353.506C412.731 355.905 426.441 387.41 428.604 389.091C430.768 390.773 437.258 391.737 437.258 391.737L447.594 405.685L472.838 390.538L441.585 339.076C441.585 339.076 436.541 335.231 433.413 334.501C430.286 333.784 428.839 333.055 426.923 334.501C424.994 335.948 417.551 345.085 417.551 345.085H417.54Z" fill="#D9D9D9" stroke="#1F1F1F" stroke-miterlimit="10"/>
<path d="M447.594 405.685L489.464 447.562C490.934 449.032 493.298 449.126 494.885 447.774C496.214 446.633 496.649 444.751 495.943 443.14L472.85 390.538L447.605 405.685H447.594Z" fill="#D9D9D9" stroke="#1F1F1F" stroke-miterlimit="10"/>
<path d="M429.568 351.824C429.568 351.824 443.996 379.719 455.048 397.758" stroke="#1F1F1F" stroke-miterlimit="10"/>
<path d="M437.258 391.737L421.632 365.042C421.632 365.042 420.432 366.489 423.078 372.251C425.723 378.025 430.05 383.788 430.05 383.788" stroke="#1F1F1F" stroke-miterlimit="10"/>
<path d="M457.941 416.269L478.376 403.768" stroke="#1F1F1F" stroke-miterlimit="10"/>
<path d="M461.304 419.879L480.54 408.578" stroke="#1F1F1F" stroke-miterlimit="10"/>
<path d="M453.614 367.735C455.213 371.087 454.519 374.768 452.062 375.932C449.604 377.108 446.312 375.332 444.713 371.969C443.114 368.617 443.807 364.936 446.265 363.772C448.722 362.596 452.015 364.372 453.614 367.735Z" fill="#F7F7F7" stroke="#1F1F1F" stroke-miterlimit="10"/>
<path d="M480.469 413.176L492.992 386.645C494.509 383.447 498.577 382.447 501.399 384.575C503.833 386.41 504.339 389.867 502.54 392.325L485.208 415.998C484.244 417.304 482.374 417.515 481.151 416.445C480.223 415.634 479.94 414.293 480.469 413.176Z" fill="#D9D9D9" stroke="#1F1F1F" stroke-miterlimit="10"/>
<path d="M405.041 248.183C405.041 248.183 395.905 264.059 394.705 266.458C393.506 268.857 411.778 322.483 411.778 322.483C411.778 322.483 410.097 336.43 410.097 338.359C410.097 340.287 416.352 344.368 417.551 345.097C418.751 345.815 420.197 346.544 421.878 347.026C423.56 347.508 428.616 346.791 428.616 346.791C428.616 346.791 425.97 339.1 426.934 336.689C427.899 334.29 429.333 333.808 430.297 333.808C431.262 333.808 433.425 334.525 433.425 334.525C433.425 334.525 433.425 330.433 432.708 328.269C431.991 326.105 423.807 321.06 423.09 319.849C422.372 318.649 414.189 270.551 414.189 270.551L416.352 265.976L405.053 248.183H405.041Z" fill="#F7F7F7" stroke="#1F1F1F" stroke-miterlimit="10"/>
<path d="M423.078 319.837C422.96 319.637 422.643 318.214 422.208 315.968C418.492 315.827 413.577 318.108 410.802 319.59C411.425 321.424 411.778 322.483 411.778 322.483C411.778 322.483 410.097 336.43 410.097 338.359C410.097 340.287 416.352 344.368 417.551 345.097C418.751 345.815 420.197 346.544 421.878 347.026C423.56 347.508 428.616 346.791 428.616 346.791C428.616 346.791 425.97 339.1 426.934 336.689C427.899 334.29 429.333 333.808 430.297 333.808C431.262 333.808 433.425 334.525 433.425 334.525C433.425 334.525 433.425 330.433 432.708 328.269C431.99 326.105 423.807 321.06 423.09 319.849L423.078 319.837Z" fill="#FF595E" stroke="#1F1F1F" stroke-miterlimit="10"/>
<path d="M451.685 222.217C451.685 222.217 451.685 215.008 450.486 213.315C447.3 208.858 446.641 209.222 444.231 210.186C441.832 211.151 434.131 214.749 430.521 217.395C426.911 220.041 399.503 245.772 399.503 245.772L416.329 270.304L434.119 259.484C434.119 259.484 437.246 257.803 440.374 255.157C443.502 252.511 452.638 236.882 451.674 222.217H451.685Z" fill="#D9D9D9" stroke="#1F1F1F" stroke-miterlimit="10"/>
<path d="M506.573 500.082H536.779" stroke="#1F1F1F" stroke-miterlimit="10"/>
<path d="M545.386 499.941L539.613 500.517L539.895 502.834L549.584 502.399L545.386 499.941Z" stroke="#1F1F1F" stroke-miterlimit="10"/>
<path d="M553.194 498.495L556.086 500.658L563.753 499.788L567.515 498.918L565.352 497.036C565.352 497.036 561.448 496.166 561.013 496.166C560.578 496.166 556.815 496.46 556.815 496.46L553.205 498.483L553.194 498.495Z" stroke="#1F1F1F" stroke-miterlimit="10"/>
<path d="M550.454 498.06L548.138 495.308L544.093 497.189C544.093 497.189 547.562 499.071 548.138 499.212C548.714 499.353 550.454 498.06 550.454 498.06Z" stroke="#1F1F1F" stroke-miterlimit="10"/>
<path d="M543.082 494.873H536.721L535.133 496.754L540.048 497.483L543.082 494.873Z" stroke="#1F1F1F" stroke-miterlimit="10"/>
<path d="M532.382 495.602L528.913 495.461L527.761 497.189L531.653 497.483L532.382 495.602Z" stroke="#1F1F1F" stroke-miterlimit="10"/>
<path d="M479.811 220.535C479.811 220.535 475.966 228.708 475.237 245.302C474.52 261.895 474.52 270.315 474.038 274.161C473.556 278.006 472.838 285.462 472.838 285.462C472.838 285.462 483.903 275.843 488.712 269.351C493.521 262.86 494.72 252.04 494.72 252.04L500.247 234.73C500.247 234.73 502.645 229.202 502.175 227.521C501.693 225.839 493.756 221.511 487.513 220.782C481.257 220.065 479.823 220.547 479.823 220.547L479.811 220.535Z" fill="#D9D9D9" stroke="#1F1F1F" stroke-miterlimit="10"/>
<path d="M494.003 217.889C494.003 217.889 486.795 216.69 482.939 217.889C479.094 219.089 477.647 227.262 477.647 233.518C477.647 239.775 480.046 250.829 481.739 253.722C483.421 256.603 484.138 256.603 486.548 255.886C488.947 255.168 494.72 252.04 494.72 252.04C494.72 252.04 493.885 243.385 494.955 238.093C496.025 232.801 502.892 223.181 502.892 223.181L493.991 217.889H494.003Z" fill="#F7F7F7" stroke="#1F1F1F" stroke-miterlimit="10"/>
<path d="M491.193 238.269C491.193 238.269 488.147 241.315 486.795 246.384C485.443 251.452 483.421 256.192 483.421 256.192C483.421 256.192 491.875 254.498 496.943 249.43C502.01 244.361 491.193 238.269 491.193 238.269Z" fill="#1F1F1F" stroke="#1F1F1F" stroke-miterlimit="10"/>
<path d="M500.823 213.42C500.823 213.42 499.776 213.832 498.53 215.502C497.284 217.172 496.449 217.995 495.614 217.995C494.779 217.995 492.286 216.749 491.452 217.783C490.617 218.818 489.37 218.83 491.24 221.323C493.109 223.816 495.402 226.11 495.402 226.11C495.402 226.11 494.356 230.696 496.025 232.777C497.695 234.859 508.313 234.859 509.136 234.647C509.971 234.436 511.217 235.482 510.806 231.519C510.394 227.556 500.811 213.409 500.811 213.409L500.823 213.42Z" fill="#1F1F1F" stroke="#1F1F1F" stroke-miterlimit="10"/>
<path d="M518.519 254.028C518.519 254.028 514.356 259.237 513.11 260.061C511.864 260.896 505.82 258.814 505.82 258.814C505.82 258.814 499.988 262.566 497.907 261.731C495.826 260.896 489.37 248.818 489.37 243.62C489.37 238.422 492.498 231.131 492.498 231.131C492.498 231.131 492.286 225.298 494.991 223.217C497.695 221.135 499.988 223.84 500.4 225.921C500.811 228.003 498.318 231.754 499.776 232.166C501.234 232.578 507.478 232.166 507.478 232.166C507.478 232.166 514.345 250.9 518.507 254.028H518.519Z" fill="#F7F7F7" stroke="#1F1F1F" stroke-miterlimit="10"/>
<path d="M507.69 250.488C507.69 250.488 507.901 254.439 511.852 254.863" stroke="#1F1F1F" stroke-miterlimit="10"/>
<path d="M501.658 250.9C501.658 250.9 500.823 254.651 503.327 256.733" stroke="#1F1F1F" stroke-miterlimit="10"/>
<path d="M505.808 202.049C505.808 202.049 496.402 203.554 497.154 209.199C497.907 214.843 503.551 221.253 504.303 225.016C505.056 228.779 508.066 241.962 509.947 246.854C511.828 251.746 512.205 254.004 517.096 256.262C521.988 258.52 530.277 261.154 532.158 258.52C534.04 255.886 534.04 246.09 534.04 246.09C534.04 246.09 543.07 237.434 543.446 225.004C543.822 212.574 538.555 205.047 530.642 200.908C522.74 196.768 512.569 194.51 505.797 202.037L505.808 202.049Z" fill="#D9D9D9" stroke="#1F1F1F" stroke-miterlimit="10"/>
<path d="M500.411 205.518C500.411 205.518 498.33 208.223 500.823 213.432C503.316 218.642 507.278 223.64 508.113 228.626C508.948 233.624 509.571 240.704 514.145 244.032C518.719 247.36 527.255 250.065 530.794 249.03" stroke="#1F1F1F" stroke-miterlimit="10"/>
<path d="M504.985 203.636C504.985 203.636 502.904 208.011 505.197 211.339C507.49 214.667 511.44 222.793 513.31 227.168C515.18 231.543 515.062 238.634 524.551 242.362" stroke="#1F1F1F" stroke-miterlimit="10"/>
<path d="M233.524 199.297C233.524 199.297 238.604 209.881 244.53 213.268C250.456 216.654 284.731 220.465 284.731 220.465L291.081 189.148C291.081 189.148 280.075 191.688 275.419 192.111C270.762 192.535 265.683 192.535 265.683 192.535L233.524 199.308V199.297Z" fill="#D9D9D9" stroke="#1F1F1F" stroke-miterlimit="10"/>
<path d="M241.567 180.246C241.567 180.246 237.334 181.939 234.794 184.479C232.254 187.019 232.254 198.45 233.524 199.297C234.794 200.143 247.916 206.494 250.033 206.494C252.149 206.494 263.155 202.26 264.848 199.72C266.541 197.18 269.081 189.983 266.541 185.749C264.002 181.516 244.53 176.859 241.567 180.246Z" fill="#F7F7F7" stroke="#1F1F1F" stroke-miterlimit="10"/>
<path d="M244.953 169.662C244.953 169.662 236.064 189.136 239.45 194.64C242.837 200.143 249.61 200.99 254.689 198.027C259.769 195.063 261.885 189.559 262.732 187.866C263.578 186.173 272.949 145.06 272.949 145.06C272.949 145.06 276.759 142.943 278.876 141.673C280.992 140.403 283.12 137.651 283.12 137.651C283.12 137.651 289.035 135.111 294.537 132.359C297.489 130.877 293.056 128.772 291.786 128.772C290.516 128.772 286.072 130.665 286.072 130.665V126.008C286.072 126.008 275.489 126.008 271.256 126.432C267.023 126.855 263.214 126.008 260.251 128.972C257.288 131.935 256.018 145.06 256.018 145.06L244.953 169.673V169.662Z" fill="#F7F7F7" stroke="#1F1F1F" stroke-miterlimit="10"/>
<path d="M291.774 128.76C290.504 128.76 286.06 130.654 286.06 130.654V125.997C286.06 125.997 275.478 125.997 271.245 126.42C267.012 126.843 263.202 125.997 260.239 128.96C257.276 131.924 256.006 145.048 256.006 145.048L255.853 145.601C259.169 147.259 264.895 149.528 272.209 150.199C272.656 147.035 272.926 145.048 272.926 145.048C272.926 145.048 276.736 142.931 278.852 141.661C280.969 140.391 283.097 137.639 283.097 137.639C283.097 137.639 289.023 135.099 294.514 132.347C297.465 130.865 293.032 128.76 291.763 128.76H291.774Z" fill="#FF595E" stroke="#1F1F1F" stroke-linecap="round" stroke-linejoin="round"/>
<path d="M260.251 128.972C260.251 128.972 264.507 122.633 265.989 121.363C267.47 120.093 274.019 121.575 274.019 121.575C274.019 121.575 279.311 128.125 277.829 129.184C276.348 130.242 271.903 127.702 271.903 127.702L266.823 128.76" fill="#FF595E"/>
<path d="M260.251 128.972C260.251 128.972 264.507 122.633 265.989 121.363C267.47 120.093 274.019 121.575 274.019 121.575C274.019 121.575 279.311 128.125 277.829 129.184C276.348 130.242 271.903 127.702 271.903 127.702L266.823 128.76" stroke="#1F1F1F" stroke-miterlimit="10"/>
<path d="M274.019 121.575C274.019 121.575 276.983 120.516 278.041 120.94C279.099 121.363 282.909 127.067 283.12 128.549C283.332 130.03 280.581 129.819 280.581 129.819L277.829 129.184L274.019 121.575Z" fill="#FF595E" stroke="#1F1F1F" stroke-miterlimit="10"/>
<path d="M278.029 120.94C278.029 120.94 280.992 120.728 282.262 121.575C283.532 122.422 285.002 123.668 286.06 126.008C287.118 128.349 283.109 128.56 283.109 128.56C283.109 128.56 281.627 125.385 280.992 124.327C280.357 123.268 278.029 120.94 278.029 120.94Z" fill="#FF595E" stroke="#1F1F1F" stroke-miterlimit="10"/>
<path d="M282.262 121.575C282.262 121.575 285.86 120.728 287.13 121.998C288.4 123.268 290.305 126.655 289.246 127.502C288.188 128.349 286.072 126.008 286.072 126.008C286.072 126.008 283.332 121.363 282.274 121.575H282.262Z" fill="#FF595E" stroke="#1F1F1F" stroke-miterlimit="10"/>
<path d="M142.246 127.855L143.292 115.883L107.359 112.743L106.313 124.727L118.036 125.75L115.896 150.222L104.184 149.199L103.138 161.171L139.059 164.311L140.106 152.327L128.383 151.304L130.523 126.832L142.246 127.855Z" fill="#1F1F1F" stroke="#1F1F1F" stroke-miterlimit="10"/>
<path d="M143.292 115.883L437.517 141.473L435.953 153.397L142.246 127.855L143.292 115.883Z" fill="#F7F7F7" stroke="#1F1F1F" stroke-miterlimit="10"/>
<path d="M130.524 126.763L128.388 151.236L422.095 176.885L424.231 152.411L130.524 126.763Z" fill="#F7F7F7" stroke="#1F1F1F" stroke-miterlimit="10"/>
<path d="M140.098 152.266L139.053 164.239L432.76 189.888L433.805 177.914L140.098 152.266Z" fill="#F7F7F7" stroke="#1F1F1F" stroke-miterlimit="10"/>
<path d="M144.938 139.156C144.832 140.32 143.81 141.191 142.645 141.085C141.481 140.979 140.611 139.956 140.717 138.792C140.823 137.627 141.846 136.757 143.01 136.863C144.174 136.969 145.044 137.992 144.938 139.156Z" stroke="#1F1F1F" stroke-miterlimit="10"/>
<path d="M165.527 140.955C165.421 142.12 164.398 142.99 163.234 142.884C162.07 142.778 161.2 141.755 161.306 140.591C161.411 139.427 162.434 138.556 163.599 138.662C164.763 138.768 165.633 139.791 165.527 140.955Z" stroke="#1F1F1F" stroke-miterlimit="10"/>
<path d="M186.127 142.755C186.021 143.919 184.998 144.789 183.834 144.683C182.67 144.577 181.8 143.554 181.906 142.39C182.012 141.226 183.035 140.356 184.199 140.461C185.363 140.567 186.233 141.59 186.127 142.755Z" stroke="#1F1F1F" stroke-miterlimit="10"/>
<path d="M370.919 158.901C370.813 160.065 369.79 160.936 368.626 160.83C367.462 160.724 366.592 159.701 366.697 158.537C366.803 157.372 367.826 156.502 368.99 156.608C370.154 156.714 371.024 157.737 370.919 158.901Z" stroke="#1F1F1F" stroke-miterlimit="10"/>
<path d="M391.519 160.7C391.413 161.865 390.39 162.735 389.226 162.629C388.062 162.523 387.192 161.5 387.298 160.336C387.404 159.172 388.426 158.301 389.591 158.407C390.755 158.513 391.625 159.536 391.519 160.7Z" stroke="#1F1F1F" stroke-miterlimit="10"/>
<path d="M412.107 162.5C412.002 163.664 410.979 164.534 409.815 164.428C408.651 164.323 407.78 163.299 407.886 162.135C407.992 160.971 409.015 160.101 410.179 160.206C411.343 160.312 412.213 161.335 412.107 162.5Z" stroke="#1F1F1F" stroke-miterlimit="10"/>
<path d="M273.961 308.571C273.961 308.571 259.404 336.818 257.264 353.941C255.124 371.063 252.126 389.044 253.842 392.89C255.559 396.747 257.699 403.591 258.981 404.45C260.262 405.308 280.381 443.399 282.086 445.116C283.802 446.833 287.224 451.96 287.224 451.96C287.224 451.96 285.942 456.241 286.801 457.958C287.659 459.675 291.081 464.379 291.081 464.379L297.077 470.8C297.077 470.8 306.06 472.082 309.494 468.236C312.916 464.379 314.632 457.958 314.632 456.253C314.632 454.548 316.349 452.831 312.916 448.55C309.494 444.269 306.072 441.706 306.072 441.706C306.072 441.706 295.372 410.883 293.656 404.462C291.939 398.041 286.377 384.775 286.377 384.775L304.356 342.828L318.054 318.002L273.972 308.582L273.961 308.571Z" fill="#1F1F1F" stroke="#1F1F1F" stroke-miterlimit="10"/>
<path d="M291.081 464.367L294.961 473.869C294.961 473.869 297.712 473.869 290.834 479.149C283.955 484.43 279.369 487.182 278.911 489.016C278.452 490.851 279.146 494.755 279.828 495.672C280.51 496.59 280.745 499.118 290.375 498.659C300.005 498.201 305.508 493.156 309.188 489.945C312.857 486.735 316.067 482.607 316.067 482.607L316.76 484.9C316.76 484.9 318.83 482.607 320.429 480.537C322.04 478.467 323.874 474.798 323.874 473.422C323.874 472.046 318.371 465.625 316.996 462.18C315.62 458.734 314.632 456.241 314.632 456.241C314.632 456.241 311.493 463.321 308.977 464.932C306.46 466.543 304.156 467.683 304.156 467.683C304.156 467.683 302.086 464.014 296.583 463.556C291.081 463.097 291.092 464.379 291.092 464.379L291.081 464.367Z" fill="#F7F7F7" stroke="#1F1F1F" stroke-miterlimit="10"/>
<path d="M322.299 470.518C319.688 472.893 315.596 477.621 313.55 481.207C310.799 486.029 303.462 493.367 293.82 495.425C287.588 496.766 282.133 494.837 279.052 493.309C279.252 494.367 279.546 495.272 279.828 495.661C280.522 496.578 280.745 499.106 290.375 498.648C300.005 498.189 305.508 493.144 309.188 489.933C312.857 486.723 316.067 482.595 316.067 482.595L316.76 484.888C316.76 484.888 318.83 482.595 320.429 480.525C322.04 478.456 323.874 474.786 323.874 473.411C323.874 472.94 323.216 471.858 322.31 470.518H322.299Z" fill="#F7F7F7" stroke="#1F1F1F" stroke-miterlimit="10"/>
<path d="M302.639 319.696L314.197 439.118L314.62 456.241C314.62 456.241 312.057 462.662 313.339 466.084C314.62 469.506 318.042 475.927 318.042 475.927C318.042 475.927 326.179 484.488 330.024 482.348C333.88 480.208 339.442 473.787 339.442 473.787C339.442 473.787 345.004 466.507 345.004 462.227C345.004 457.946 342.864 452.807 342.864 448.103V420.279C342.864 415.998 343.722 373.192 343.722 373.192L349.719 312.839C349.719 312.839 338.16 309.417 332.599 309.841C327.037 310.264 302.639 319.684 302.639 319.684V319.696Z" fill="#1F1F1F" stroke="#1F1F1F" stroke-miterlimit="10"/>
<path d="M313.339 466.084L314.468 474.786C314.468 474.786 311.481 483.042 309.647 486.029C307.812 489.016 302.992 491.309 300.24 492.909C297.489 494.52 297.03 497.73 298.171 500.482C299.323 503.234 300.464 504.61 304.826 505.762C309.188 506.915 322.722 506.221 327.307 503.469C331.893 500.717 335.797 497.965 335.797 497.965V500.035C335.797 500.035 337.408 499.118 340.159 497.283C342.911 495.449 343.604 493.838 343.604 493.838C343.604 493.838 343.369 483.054 342.687 480.761C341.993 478.467 341.77 477.55 341.311 476.633C340.853 475.716 342.464 467.225 342.464 467.225C342.464 467.225 338.795 471.811 336.726 473.187C334.656 474.563 332.599 474.798 331.682 474.798C330.764 474.798 330.988 469.059 329.847 467.683C328.695 466.308 324.568 464.696 321.358 464.473C318.148 464.238 313.351 466.084 313.351 466.084H313.339Z" fill="#F7F7F7" stroke="#1F1F1F" stroke-miterlimit="10"/>
<path d="M338.313 491.309C336.244 493.602 328.907 499.8 316.067 502.093C307.918 503.551 301.628 501.776 298.112 500.282C298.135 500.353 298.159 500.423 298.183 500.494C299.335 503.246 300.475 504.622 304.838 505.774C309.2 506.927 322.734 506.233 327.319 503.481C331.905 500.729 335.809 497.977 335.809 497.977V500.047C335.809 500.047 337.42 499.13 340.171 497.295C342.922 495.461 343.616 493.849 343.616 493.849C343.616 493.849 343.51 489.134 343.252 485.265C341.794 487.146 339.63 489.898 338.348 491.321L338.313 491.309Z" fill="#F7F7F7" stroke="#1F1F1F" stroke-miterlimit="10"/>
<path d="M273.537 294.012L269.257 311.993L281.239 324.835L287.659 315.415L292.362 325.693C292.362 325.693 316.325 326.552 326.602 322.694C336.879 318.837 344.145 314.992 344.145 314.992L353.128 321.413L351.412 301.726L273.526 294.024L273.537 294.012Z" fill="#F7F7F7" stroke="#1F1F1F" stroke-miterlimit="10"/>
<path d="M317.936 176.635C317.936 176.635 289.493 184.914 287.577 187.89C285.672 190.865 280.78 202.966 280.78 215.914C280.78 228.861 275.901 264.33 275.689 267.716C275.477 271.115 270.386 301.268 270.386 301.268C270.386 301.268 280.369 303.608 282.909 304.878C285.448 306.148 287.153 306.36 287.153 306.36L290.128 301.479L291.398 306.995C291.398 306.995 305.625 309.758 325.579 308.477C345.533 307.195 351.906 304.866 351.906 304.866L363.581 226.944C363.581 226.944 370.166 210.386 366.133 197.427C362.1 184.479 352.117 180.234 346.814 178.952C341.511 177.682 336.62 176.4 336.62 176.4L317.936 176.612V176.635Z" fill="#FF595E" stroke="#1F1F1F" stroke-linecap="round" stroke-linejoin="round"/>
<path d="M310.717 179.387L302.439 186.396L303.074 197.227L306.472 190.853L311.998 198.497L310.717 179.387Z" fill="#F7F7F7" stroke="#1F1F1F" stroke-linecap="round" stroke-linejoin="round"/>
<path d="M307.954 171.32L311.775 195.522L335.127 173.013L332.998 165.157C332.998 165.157 323.662 172.378 319.841 174.072C316.02 175.765 307.954 171.308 307.954 171.308V171.32Z" fill="#F7F7F7" stroke="#1F1F1F" stroke-linecap="round" stroke-linejoin="round"/>
<path d="M296.924 135.017C296.924 135.017 299.476 123.551 303.932 118.247C308.389 112.943 321.769 110.603 329.412 113.366C337.055 116.13 342.781 123.986 343.851 130.56C344.909 137.145 345.121 139.262 345.756 140.755C346.391 142.237 347.238 143.519 347.238 143.519L296.289 136.933L296.924 135.028V135.017Z" fill="#D9D9D9" stroke="#1F1F1F" stroke-miterlimit="10"/>
<path d="M300.099 135.017C300.099 135.017 285.872 134.17 289.058 136.287C292.245 138.415 292.88 139.474 305.614 141.59C318.348 143.707 333.422 147.318 333.422 147.318C333.422 147.318 339.583 152.41 345.521 150.716C351.459 149.023 352.529 147.106 349.131 143.919C345.733 140.732 300.087 135.005 300.087 135.005L300.099 135.017Z" fill="#FF595E" stroke="#1F1F1F" stroke-miterlimit="10"/>
<path d="M318.994 117.388C318.994 117.388 320.688 114.201 323.662 113.143C326.637 112.085 329.389 113.355 329.389 113.355C329.389 113.355 317.713 105.499 309.435 115.26" fill="#D9D9D9"/>
<path d="M318.994 117.388C318.994 117.388 320.688 114.201 323.662 113.143C326.637 112.085 329.389 113.355 329.389 113.355C329.389 113.355 317.713 105.499 309.435 115.26" stroke="#1F1F1F" stroke-miterlimit="10"/>
<path d="M300.875 139.732C300.875 139.732 300.323 159.642 301.592 163.887C302.862 168.133 309.658 175.988 311.787 176.623C313.915 177.258 317.736 178.317 319.853 177.682C321.981 177.047 330.047 171.308 331.952 169.614C333.857 167.921 335.773 162.817 335.773 161.547C335.773 160.277 336.62 157.725 336.62 157.725C336.62 157.725 339.383 157.302 340.441 155.82C341.5 154.338 341.5 151.786 340.653 150.728C339.806 149.67 338.748 149.034 338.748 149.034L338.96 145.212L300.875 139.744V139.732Z" fill="#F7F7F7" stroke="#1F1F1F" stroke-linecap="round" stroke-linejoin="round"/>
<path d="M308.6 149.881C308.6 149.881 308.6 154.338 308.389 155.397C308.177 156.455 306.484 158.16 307.33 159.219C308.177 160.277 310.517 161.559 313.492 160.277" stroke="#1F1F1F" stroke-linecap="round" stroke-linejoin="round"/>
<path d="M308.389 164.311C308.389 164.311 310.517 165.581 314.115 164.734C317.725 163.887 319.841 162.182 319.841 162.182" stroke="#1F1F1F" stroke-linecap="round" stroke-linejoin="round"/>
<path d="M295.219 141.167C295.219 141.167 294.796 146.471 296.489 149.234C298.183 151.998 300.734 152.633 303.709 152.21C306.684 151.786 308.8 148.388 311.352 149.446C313.903 150.504 313.256 154.115 320.899 154.115C328.542 154.115 329.389 145.412 329.389 145.412L295.208 141.167H295.219Z" stroke="#1F1F1F" stroke-linecap="round" stroke-linejoin="round"/>
<path d="M327.919 143.719C327.919 143.719 329.824 152.21 332.375 152.633C334.927 153.056 338.748 149.023 338.748 149.023L338.96 145.201L327.919 143.719Z" fill="#1F1F1F" stroke="#1F1F1F" stroke-linecap="round" stroke-linejoin="round"/>
<path d="M317.748 147.435C317.748 148.611 317.101 149.564 316.302 149.564C315.502 149.564 314.856 148.611 314.856 147.435C314.856 146.259 315.502 145.307 316.302 145.307C317.101 145.307 317.748 146.259 317.748 147.435Z" fill="#1F1F1F"/>
<path d="M306.86 146.083C306.86 147.259 306.213 148.211 305.414 148.211C304.614 148.211 303.968 147.259 303.968 146.083C303.968 144.907 304.614 143.954 305.414 143.954C306.213 143.954 306.86 144.907 306.86 146.083Z" fill="#1F1F1F"/>
<path d="M310.505 187.454L311.998 198.497L339.383 176.847L336.197 170.05L310.505 187.454Z" fill="#F7F7F7" stroke="#1F1F1F" stroke-linecap="round" stroke-linejoin="round"/>
<path d="M279.405 235.435C279.005 239.328 278.558 243.326 278.123 247.136C289.058 248.03 309.024 249.994 325.767 253.475C340.171 256.474 351.376 261.319 357.938 264.647L359.772 252.44C352.364 248.971 341.558 244.761 328.166 241.974C310.799 238.352 290.669 236.352 279.405 235.435Z" fill="#F7F7F7" stroke="#1F1F1F" stroke-miterlimit="10"/>
<path d="M354.187 289.637L355.95 277.842C332.528 278.724 289.329 274.643 274.948 273.197C274.455 276.431 273.784 280.652 273.102 284.839C285.684 286.133 323.028 289.719 348.66 289.719C350.577 289.719 352.411 289.696 354.187 289.649V289.637Z" fill="#F7F7F7" stroke="#1F1F1F" stroke-miterlimit="10"/>
<path d="M357.244 221.1C357.244 221.1 364.816 215.349 365.604 208.822C366.392 202.296 365.087 192.37 356.985 187.407C348.896 182.445 338.713 190.018 337.137 192.629C335.574 195.24 328.001 204.636 328.001 204.636L324.603 208.034L321.734 208.552L311.034 204.636L297.454 221.347C297.454 221.347 319.124 246.149 326.955 246.419C334.786 246.678 347.837 231.801 349.413 229.967C350.977 228.144 357.244 221.088 357.244 221.088V221.1Z" fill="#D9D9D9" stroke="#1F1F1F" stroke-miterlimit="10"/>
<path d="M321.734 208.564C321.734 208.564 331.399 212.738 335.574 215.09C339.748 217.442 343.934 222.146 343.934 222.146" stroke="#1F1F1F" stroke-miterlimit="10"/>
<path d="M336.103 211.692C336.103 211.692 345.768 212.738 348.378 217.172" stroke="#1F1F1F" stroke-miterlimit="10"/>
<path d="M330.094 210.128C330.094 210.128 333.751 208.564 339.759 208.822" stroke="#1F1F1F" stroke-miterlimit="10"/>
<path d="M304.767 199.944L275.007 168.086L271.092 157.902C271.092 157.902 266.659 152.421 264.037 150.069C261.415 147.717 259.334 145.895 258.816 147.717L258.299 149.54C258.299 149.54 254.383 147.188 252.819 147.188C251.256 147.188 249.951 147.706 251.514 149.281C253.078 150.857 254.912 153.985 254.912 153.985L256.218 156.079C256.218 156.079 251.785 152.68 248.128 151.904C244.471 151.116 242.907 152.692 244.471 154.256C246.035 155.82 249.433 158.172 249.433 158.172L253.607 163.135C253.607 163.135 247.34 161.041 245.247 160.524C243.154 160.007 242.637 162.876 244.73 164.181C246.823 165.487 254.654 168.615 254.654 168.615C254.654 168.615 258.311 175.4 261.967 177.235C265.624 179.058 268.752 181.668 268.752 181.668L293.291 217.96L304.779 199.944H304.767Z" fill="#F7F7F7" stroke="#1F1F1F" stroke-miterlimit="10"/>
<path d="M275.007 168.086L271.092 157.902C271.092 157.902 266.659 152.421 264.037 150.069C261.415 147.717 259.334 145.895 258.816 147.717L258.299 149.54C258.299 149.54 254.383 147.188 252.819 147.188C251.256 147.188 249.951 147.706 251.514 149.281C253.078 150.857 254.912 153.985 254.912 153.985L256.218 156.079C256.218 156.079 251.785 152.68 248.128 151.904C244.471 151.116 242.907 152.692 244.471 154.256C246.035 155.82 249.433 158.172 249.433 158.172L253.607 163.135C253.607 163.135 247.34 161.041 245.247 160.524C243.154 160.007 242.637 162.876 244.73 164.181C246.823 165.487 254.654 168.615 254.654 168.615C254.654 168.615 258.311 175.4 261.967 177.235C265.624 179.058 268.752 181.668 268.752 181.668L269.634 182.974L280.087 173.519L275.019 168.097L275.007 168.086Z" fill="#FF595E" stroke="#1F1F1F" stroke-miterlimit="10"/>
<path d="M258.299 149.54C258.299 149.54 262.473 153.715 263.519 154.503C264.566 155.291 265.083 156.596 265.083 156.596" stroke="#1F1F1F" stroke-miterlimit="10"/>
<path d="M256.206 156.079L259.604 159.995" stroke="#1F1F1F" stroke-miterlimit="10"/>
<path d="M305.814 196.286L288.576 215.608L297.454 226.58L314.162 202.554L305.814 196.286Z" fill="#F7F7F7" stroke="#1F1F1F" stroke-miterlimit="10"/>
<path d="M56.6861 57.9298C56.6861 57.9298 51.9593 48.4865 43.1054 49.6625C34.2515 50.8385 33.064 59.7055 30.7006 60.2935C28.3372 60.8815 23.0225 57.3418 19.4833 59.1175C15.9441 60.8933 13.5807 65.021 13.5807 65.021C13.5807 65.021 8.8539 63.2453 5.31469 65.021C1.77548 66.7968 0 70.3366 0 70.3366H73.806C73.806 70.3366 73.2181 60.8933 67.9034 59.1175C62.5887 57.3418 59.0495 62.6573 56.6861 57.9415V57.9298Z" stroke="#1F1F1F" stroke-miterlimit="10"/>
<path d="M672.986 50.0127C672.986 50.0127 665.414 34.8775 651.233 36.7709C637.041 38.6643 635.148 52.8586 631.374 53.7994C627.6 54.7402 619.075 49.0719 613.396 51.906C607.716 54.7402 603.942 61.3611 603.942 61.3611C603.942 61.3611 596.37 58.5269 590.702 61.3611C585.035 64.1952 582.19 69.8753 582.19 69.8753H700.43C700.43 69.8753 699.489 54.7402 690.976 51.8943C682.463 49.0601 676.784 57.5743 672.998 50.0009L672.986 50.0127Z" stroke="#1F1F1F" stroke-miterlimit="10"/>
<path d="M321.842 27.1333C321.842 27.1333 314.27 11.9982 300.09 13.8915C285.898 15.7849 284.005 29.9792 280.23 30.92C276.456 31.8608 267.931 26.1925 262.252 29.0267C256.573 31.8608 252.798 38.4817 252.798 38.4817C252.798 38.4817 245.226 35.6475 239.559 38.4817C233.891 41.3159 231.046 46.9959 231.046 46.9959H349.286C349.286 46.9959 348.345 31.8608 339.832 29.0149C331.319 26.1807 325.64 34.695 321.854 27.1215L321.842 27.1333Z" stroke="#1F1F1F" stroke-miterlimit="10"/>
</g>
<defs>
<clipPath id="clip0_243_17">
<rect width="700" height="588" fill="white"/>
</clipPath>
</defs>
</svg>
