<svg width="129" height="35" viewBox="0 0 129 35" fill="none" xmlns="http://www.w3.org/2000/svg">
<path d="M41.8085 28.7889V15.8213H45.8909V28.7889H41.8085ZM43.8631 14.0336C43.2227 14.0336 42.689 13.8201 42.2621 13.3932C41.853 12.9485 41.6484 12.4148 41.6484 11.7923C41.6484 11.1519 41.853 10.6182 42.2621 10.1913C42.689 9.7644 43.2227 9.55094 43.8631 9.55094C44.5035 9.55094 45.0282 9.7644 45.4373 10.1913C45.8465 10.6182 46.051 11.1519 46.051 11.7923C46.051 12.4148 45.8465 12.9485 45.4373 13.3932C45.0282 13.8201 44.5035 14.0336 43.8631 14.0336Z" fill="#1F1F1F"/>
<path d="M54.796 29.0824C53.2484 29.0824 51.9143 28.8334 50.7936 28.3353C49.6907 27.8195 48.6768 27.0457 47.7518 26.014L50.4734 23.319C51.0782 24.0128 51.7453 24.5553 52.4746 24.9467C53.2217 25.3202 54.0844 25.507 55.0628 25.507C55.9522 25.507 56.637 25.3469 57.1173 25.0267C57.6154 24.7065 57.8644 24.2618 57.8644 23.6926C57.8644 23.1767 57.7043 22.7587 57.3842 22.4385C57.064 22.1183 56.637 21.8426 56.1034 21.6114C55.5875 21.3801 55.0094 21.1578 54.369 20.9443C53.7465 20.7309 53.1239 20.4907 52.5013 20.2239C51.8787 19.9393 51.3006 19.5924 50.7669 19.1833C50.2511 18.7564 49.833 18.2316 49.5129 17.609C49.1927 16.9686 49.0326 16.1682 49.0326 15.2076C49.0326 14.0514 49.3083 13.0552 49.8597 12.2192C50.429 11.3831 51.2116 10.7516 52.2078 10.3247C53.2039 9.88003 54.3513 9.65767 55.6498 9.65767C56.9661 9.65767 58.1668 9.88892 59.2519 10.3514C60.3548 10.8139 61.262 11.4454 61.9735 12.2459L59.2519 14.9408C58.6827 14.3538 58.1046 13.918 57.5176 13.6333C56.9483 13.3487 56.2991 13.2064 55.5698 13.2064C54.8404 13.2064 54.2623 13.3487 53.8354 13.6333C53.4085 13.9002 53.195 14.2915 53.195 14.8074C53.195 15.2876 53.3551 15.679 53.6753 15.9814C53.9955 16.266 54.4135 16.515 54.9294 16.7285C55.463 16.942 56.0411 17.1554 56.6637 17.3689C57.3041 17.5823 57.9356 17.8314 58.5582 18.116C59.1808 18.4006 59.75 18.7653 60.2659 19.21C60.7995 19.6369 61.2264 20.1883 61.5466 20.8643C61.8668 21.5224 62.0269 22.3407 62.0269 23.319C62.0269 25.1157 61.3865 26.5298 60.1058 27.5615C58.825 28.5755 57.0551 29.0824 54.796 29.0824Z" fill="#1F1F1F"/>
<path d="M69.6601 29.0558C68.4683 29.0558 67.401 28.7622 66.4582 28.1752C65.5333 27.5882 64.795 26.7877 64.2436 25.7738C63.71 24.7599 63.4431 23.6037 63.4431 22.3051C63.4431 21.0066 63.71 19.8503 64.2436 18.8364C64.795 17.8225 65.5333 17.022 66.4582 16.435C67.401 15.848 68.4683 15.5545 69.6601 15.5545C70.5318 15.5545 71.3144 15.7235 72.0082 16.0614C72.7197 16.3994 73.2978 16.8708 73.7425 17.4756C74.1872 18.0626 74.4363 18.7386 74.4896 19.5035V25.1068C74.4363 25.8717 74.1872 26.5565 73.7425 27.1613C73.3156 27.7483 72.7464 28.2108 72.0349 28.5488C71.3233 28.8868 70.5318 29.0558 69.6601 29.0558ZM70.4873 25.3736C71.3589 25.3736 72.0615 25.089 72.5952 24.5197C73.1288 23.9327 73.3957 23.1945 73.3957 22.3051C73.3957 21.7003 73.2711 21.1667 73.0221 20.7042C72.7909 20.2417 72.4529 19.8859 72.0082 19.6369C71.5813 19.3701 71.0832 19.2366 70.514 19.2366C69.9447 19.2366 69.4378 19.3701 68.9931 19.6369C68.5661 19.8859 68.2193 20.2417 67.9525 20.7042C67.7034 21.1667 67.5789 21.7003 67.5789 22.3051C67.5789 22.8921 67.7034 23.4169 67.9525 23.8794C68.2015 24.3419 68.5484 24.7065 68.9931 24.9733C69.4378 25.2402 69.9358 25.3736 70.4873 25.3736ZM73.2356 28.7889V25.2935L73.8493 22.145L73.2356 18.9965V15.8213H77.2379V28.7889H73.2356Z" fill="#1F1F1F"/>
<path d="M81.7666 28.7889V14.7006C81.7666 13.6511 81.9979 12.7084 82.4604 11.8723C82.9407 11.0185 83.6077 10.3514 84.4615 9.87113C85.3154 9.37306 86.3293 9.12402 87.5033 9.12402C88.3927 9.12402 89.1665 9.27522 89.8247 9.57762C90.5007 9.86224 91.0877 10.2625 91.5857 10.7783L89.0242 13.3398C88.8463 13.162 88.6418 13.0285 88.4105 12.9396C88.1971 12.8329 87.9391 12.7795 87.6367 12.7795C87.0853 12.7795 86.6495 12.9396 86.3293 13.2598C86.0091 13.58 85.849 14.0158 85.849 14.5672V28.7889H81.7666ZM78.9116 19.29V15.8213H89.5846V19.29H78.9116Z" fill="#1F1F1F"/>
<path d="M97.5643 29.0824C96.159 29.0824 94.9049 28.7978 93.802 28.2286C92.717 27.6416 91.8631 26.8322 91.2405 25.8005C90.6179 24.7688 90.3067 23.6037 90.3067 22.3051C90.3067 21.0066 90.609 19.8503 91.2138 18.8364C91.8364 17.8047 92.6725 16.9953 93.722 16.4083C94.7715 15.8213 95.9544 15.5278 97.2707 15.5278C98.5515 15.5278 99.6811 15.8035 100.659 16.3549C101.638 16.9064 102.403 17.6713 102.954 18.6496C103.523 19.628 103.808 20.7486 103.808 22.0116C103.808 22.2429 103.79 22.4919 103.755 22.7587C103.737 23.0077 103.692 23.3013 103.621 23.6392L92.4412 23.6659V20.8643L101.887 20.8376L100.126 22.0116C100.108 21.2645 99.9923 20.6508 99.7789 20.1705C99.5654 19.6725 99.2452 19.2989 98.8183 19.0499C98.4092 18.783 97.9022 18.6496 97.2974 18.6496C96.6571 18.6496 96.0967 18.8008 95.6164 19.1032C95.1539 19.3878 94.7893 19.797 94.5225 20.3306C94.2734 20.8643 94.1489 21.5135 94.1489 22.2784C94.1489 23.0433 94.2823 23.7015 94.5491 24.2529C94.8338 24.7866 95.2251 25.2046 95.7232 25.507C96.239 25.7916 96.8438 25.9339 97.5376 25.9339C98.1779 25.9339 98.7561 25.8272 99.2719 25.6137C99.7878 25.3825 100.241 25.0445 100.633 24.5998L102.874 26.8411C102.234 27.5882 101.46 28.1486 100.553 28.5221C99.6455 28.8957 98.6493 29.0824 97.5643 29.0824Z" fill="#1F1F1F"/>
<path d="M107.333 28.7889V10.4581H111.415V28.7889H107.333ZM104.398 19.29V15.8213H114.35V19.29H104.398Z" fill="#1F1F1F"/>
<path d="M120.151 28.8423L114.815 15.8213H119.218L122.606 26.1474H120.979L124.447 15.8213H128.85L123.3 28.8423H120.151ZM116.816 34.2588L120.712 25.8539L123.3 28.8423L121.005 34.2588H116.816Z" fill="#1F1F1F"/>
<path d="M42.9039 4.57229C42.5922 4.57229 42.2998 4.51466 42.0265 4.39939C41.7576 4.27985 41.5206 4.11549 41.3157 3.9063C41.1151 3.69711 40.9571 3.45377 40.8418 3.17627C40.7266 2.89877 40.6689 2.59993 40.6689 2.27974C40.6689 1.95955 40.7266 1.66285 40.8418 1.38962C40.9571 1.11212 41.1172 0.868778 41.3221 0.659588C41.5271 0.450398 41.7661 0.28817 42.0394 0.172902C42.3168 0.0576339 42.6178 0 42.9423 0C43.2966 0 43.6232 0.0683069 43.9221 0.204921C44.2209 0.341534 44.4706 0.537916 44.6713 0.794067L44.2551 1.21031C44.1142 1.00539 43.9285 0.849567 43.6979 0.742837C43.4674 0.631839 43.2155 0.576339 42.9423 0.576339C42.6178 0.576339 42.3297 0.648915 42.0778 0.794067C41.8302 0.939219 41.6359 1.13987 41.495 1.39602C41.3584 1.65217 41.2901 1.94675 41.2901 2.27974C41.2901 2.61701 41.3606 2.91371 41.5014 3.16986C41.6423 3.42602 41.8323 3.62667 42.0714 3.77182C42.3104 3.91697 42.5837 3.98955 42.8911 3.98955C43.2027 3.98955 43.4717 3.92978 43.6979 3.81024C43.9285 3.6907 44.1056 3.51567 44.2294 3.28513C44.3532 3.05033 44.4151 2.76429 44.4151 2.42703L44.7802 2.68958H42.859V2.13886H45.0363V2.22851C45.0363 2.74508 44.9445 3.1784 44.761 3.52848C44.5816 3.87428 44.3298 4.1347 44.0053 4.30974C43.6851 4.48477 43.318 4.57229 42.9039 4.57229Z" fill="#1F1F1F"/>
<path d="M45.7435 4.50825V1.46646H46.3199V4.50825H45.7435ZM46.3199 2.77283L46.1021 2.67677C46.1021 2.28828 46.1918 1.97876 46.3711 1.74823C46.5504 1.51769 46.8087 1.40243 47.146 1.40243C47.2996 1.40243 47.4384 1.43017 47.5622 1.48567C47.686 1.5369 47.8013 1.62442 47.908 1.74823L47.5302 2.13886C47.4661 2.07055 47.3957 2.02146 47.3189 1.99157C47.242 1.96169 47.1524 1.94675 47.0499 1.94675C46.8364 1.94675 46.6614 2.01505 46.5248 2.15167C46.3882 2.28828 46.3199 2.49533 46.3199 2.77283Z" fill="#1F1F1F"/>
<path d="M49.5369 4.57229C49.2893 4.57229 49.0652 4.51679 48.8645 4.40579C48.6681 4.29052 48.5144 4.13256 48.4034 3.93191C48.2924 3.73126 48.2369 3.49859 48.2369 3.2339V1.46646H48.8133V3.20829C48.8133 3.37479 48.841 3.51994 48.8965 3.64374C48.9563 3.76328 49.0417 3.85507 49.1527 3.91911C49.2637 3.98314 49.3939 4.01516 49.5433 4.01516C49.7696 4.01516 49.9468 3.94472 50.0748 3.80384C50.2029 3.65869 50.2669 3.46017 50.2669 3.20829V1.46646H50.8433V3.2339C50.8433 3.49859 50.7878 3.73126 50.6768 3.93191C50.5658 4.13256 50.4121 4.29052 50.2157 4.40579C50.0236 4.51679 49.7973 4.57229 49.5369 4.57229Z" fill="#1F1F1F"/>
<path d="M53.2167 4.57229C52.9861 4.57229 52.777 4.52533 52.5891 4.43141C52.4055 4.33322 52.2582 4.19874 52.1472 4.02797C52.0362 3.8572 51.9743 3.66295 51.9615 3.44523V2.52949C51.9743 2.30749 52.0362 2.11324 52.1472 1.94675C52.2625 1.77598 52.4119 1.64363 52.5955 1.54971C52.7834 1.45152 52.9904 1.40243 53.2167 1.40243C53.4942 1.40243 53.7439 1.47287 53.9659 1.61375C54.1922 1.75463 54.3694 1.94461 54.4974 2.18368C54.6255 2.42276 54.6895 2.69172 54.6895 2.99056C54.6895 3.2894 54.6255 3.55836 54.4974 3.79743C54.3694 4.03651 54.1922 4.22649 53.9659 4.36737C53.7439 4.50398 53.4942 4.57229 53.2167 4.57229ZM53.1206 4.02797C53.3127 4.02797 53.4814 3.98314 53.6265 3.89349C53.7717 3.80384 53.8869 3.68217 53.9723 3.52848C54.0577 3.37052 54.1004 3.18908 54.1004 2.98416C54.1004 2.7835 54.0577 2.6042 53.9723 2.44624C53.8869 2.28828 53.7717 2.16661 53.6265 2.08122C53.4814 1.99157 53.3149 1.94675 53.127 1.94675C52.9349 1.94675 52.7663 1.99157 52.6211 2.08122C52.476 2.16661 52.3628 2.28828 52.2817 2.44624C52.2006 2.6042 52.1601 2.78564 52.1601 2.99056C52.1601 3.19121 52.1985 3.37052 52.2753 3.52848C52.3564 3.68217 52.4696 3.80384 52.6147 3.89349C52.7641 3.98314 52.9328 4.02797 53.1206 4.02797ZM51.6157 5.7826V1.46646H52.1921V2.26693L52.0832 3.00337L52.1921 3.7462V5.7826H51.6157Z" fill="#1F1F1F"/>
<path d="M56.7325 4.57229C56.4337 4.57229 56.1647 4.50185 55.9257 4.36097C55.6866 4.22008 55.4966 4.0301 55.3557 3.79103C55.2149 3.54769 55.1444 3.27659 55.1444 2.97775C55.1444 2.68318 55.2149 2.41849 55.3557 2.18368C55.4966 1.94461 55.6866 1.75463 55.9257 1.61375C56.1647 1.47287 56.4337 1.40243 56.7325 1.40243C57.0271 1.40243 57.2939 1.47287 57.533 1.61375C57.7764 1.75036 57.9685 1.93821 58.1094 2.17728C58.2502 2.41635 58.3207 2.68318 58.3207 2.97775C58.3207 3.27659 58.2502 3.54769 58.1094 3.79103C57.9685 4.0301 57.7764 4.22008 57.533 4.36097C57.2939 4.50185 57.0271 4.57229 56.7325 4.57229ZM56.7325 4.01516C56.9247 4.01516 57.0954 3.97034 57.2448 3.88068C57.3943 3.79103 57.5117 3.66936 57.5971 3.51567C57.6824 3.35771 57.7251 3.1784 57.7251 2.97775C57.7251 2.78137 57.6803 2.60633 57.5906 2.45264C57.5053 2.29895 57.3879 2.17942 57.2384 2.09403C57.0933 2.00438 56.9247 1.95955 56.7325 1.95955C56.5404 1.95955 56.3697 2.00438 56.2202 2.09403C56.0708 2.17942 55.9534 2.29895 55.868 2.45264C55.7827 2.60633 55.74 2.78137 55.74 2.97775C55.74 3.1784 55.7827 3.35771 55.868 3.51567C55.9534 3.66936 56.0708 3.79103 56.2202 3.88068C56.3697 3.97034 56.5404 4.01516 56.7325 4.01516Z" fill="#1F1F1F"/>
<path fill-rule="evenodd" clip-rule="evenodd" d="M14.3412 9.65575C13.5191 8.83495 13.5191 7.50283 14.3412 6.68202L20.2162 0.815939C21.0365 -0.00309941 22.3651 -0.00309947 23.1854 0.815939L26.8609 4.48583C27.6829 5.30663 27.6829 6.63875 26.8609 7.45956L20.9858 13.3256C20.1656 14.1447 18.8369 14.1447 18.0166 13.3256L14.3412 9.65575Z" fill="#FFCA3A"/>
<path d="M23.0628 18.3647L28.9398 24.2328C29.7601 25.0518 31.0887 25.0518 31.909 24.2328L31.9517 24.1902C32.7608 23.3823 32.7754 22.0758 31.9845 21.25L28.7659 17.8893C28.2241 17.3235 28.2241 16.4322 28.7659 15.8664L31.9845 12.5057C32.7754 11.68 32.7608 10.3734 31.9517 9.56556L31.909 9.52297C31.0887 8.70393 29.7601 8.70393 28.9398 9.52297L23.0628 15.391C22.2408 16.2118 22.2408 17.5439 23.0628 18.3647Z" fill="#6A4C93"/>
<path d="M14.3402 27.0743L20.2152 32.9404C21.0355 33.7594 22.3641 33.7594 23.1844 32.9404L26.8609 29.2695C27.6829 28.4487 27.6829 27.1166 26.8609 26.2958L20.9858 20.4297C20.1656 19.6107 18.8369 19.6107 18.0166 20.4297L14.3402 24.1006C13.5181 24.9214 13.5181 26.2535 14.3402 27.0743Z" fill="#1982C4"/>
<path d="M15.9389 15.391L11.9822 11.4403C11.3173 10.7764 10.2403 10.7764 9.5754 11.4403C8.95017 12.0646 8.93131 13.056 9.32034 13.8493C9.73924 14.7035 9.97472 15.664 9.97472 16.6791C9.97472 17.7375 9.71912 18.7354 9.26709 19.6153C8.82614 20.4736 8.82201 21.5651 9.50487 22.2469C10.2082 22.9491 11.3474 22.9491 12.0508 22.2469L15.9389 18.3647C16.761 17.5439 16.761 16.2118 15.9389 15.391Z" fill="#8AC926"/>
<path d="M1.51924 13.7881C0.59873 14.4243 0.000323401 15.483 0 16.68C0.000526319 18.6211 1.57666 20.1945 3.52083 20.1945C5.46532 20.1945 7.04165 18.6206 7.04165 16.679C7.04165 14.7375 5.46532 13.1636 3.52083 13.1636C2.7958 13.1636 2.12195 13.3824 1.56192 13.7575C1.5479 13.7679 1.53368 13.7782 1.51924 13.7881Z" fill="#FF595E"/>
</svg>
