<svg width="293" height="293" viewBox="0 0 293 293" fill="none" xmlns="http://www.w3.org/2000/svg">
<g filter="url(#filter0_d_237_157)">
<circle cx="146.5" cy="142.5" r="116.5" fill="#F7F7F7"/>
</g>
<path fill-rule="evenodd" clip-rule="evenodd" d="M129.042 115.285C125.887 112.135 125.887 107.022 129.042 103.872L151.591 81.3576C154.739 78.2141 159.838 78.2141 162.987 81.3576L177.094 95.4429C180.249 98.5932 180.249 103.706 177.094 106.856L154.545 129.371C151.396 132.514 146.297 132.514 143.149 129.371L129.042 115.285Z" fill="#FFCA3A"/>
<path d="M162.518 148.71L185.074 171.232C188.222 174.376 193.322 174.376 196.47 171.232L196.634 171.069C199.739 167.968 199.795 162.953 196.76 159.784L184.407 146.886C182.327 144.714 182.327 141.293 184.407 139.122L196.76 126.223C199.795 123.054 199.739 118.039 196.634 114.938L196.47 114.775C193.322 111.631 188.222 111.631 185.074 114.775L162.518 137.297C159.363 140.447 159.363 145.56 162.518 148.71Z" fill="#6A4C93"/>
<path d="M129.038 182.139L151.587 204.654C154.735 207.797 159.835 207.797 162.983 204.654L177.093 190.564C180.249 187.414 180.249 182.301 177.093 179.151L154.545 156.637C151.396 153.493 146.297 153.493 143.149 156.637L129.038 170.726C125.883 173.876 125.883 178.989 129.038 182.139Z" fill="#1982C4"/>
<path d="M135.176 137.297L119.99 122.134C117.438 119.586 113.304 119.586 110.752 122.134C108.353 124.53 108.28 128.335 109.773 131.38C111.381 134.658 112.285 138.345 112.285 142.241C112.285 146.303 111.304 150.133 109.569 153.51C107.876 156.805 107.861 160.994 110.481 163.611C113.181 166.306 117.553 166.306 120.253 163.611L135.176 148.71C138.331 145.56 138.331 140.447 135.176 137.297Z" fill="#8AC926"/>
<path d="M79.831 131.145C76.298 133.587 74.0012 137.65 74 142.245C74.002 149.695 80.0513 155.733 87.5132 155.733C94.9763 155.733 101.026 149.693 101.026 142.241C101.026 134.789 94.9763 128.748 87.5132 128.748C84.7305 128.748 82.1442 129.588 79.9947 131.028C79.941 131.068 79.8864 131.107 79.831 131.145Z" fill="#FF595E"/>
<defs>
<filter id="filter0_d_237_157" x="0" y="0" width="293" height="293" filterUnits="userSpaceOnUse" color-interpolation-filters="sRGB">
<feFlood flood-opacity="0" result="BackgroundImageFix"/>
<feColorMatrix in="SourceAlpha" type="matrix" values="0 0 0 0 0 0 0 0 0 0 0 0 0 0 0 0 0 0 127 0" result="hardAlpha"/>
<feOffset dy="4"/>
<feGaussianBlur stdDeviation="15"/>
<feComposite in2="hardAlpha" operator="out"/>
<feColorMatrix type="matrix" values="0 0 0 0 0 0 0 0 0 0 0 0 0 0 0 0 0 0 0.07 0"/>
<feBlend mode="normal" in2="BackgroundImageFix" result="effect1_dropShadow_237_157"/>
<feBlend mode="normal" in="SourceGraphic" in2="effect1_dropShadow_237_157" result="shape"/>
</filter>
</defs>
</svg>
