<svg width="175" height="175" viewBox="0 0 175 175" fill="none" xmlns="http://www.w3.org/2000/svg">
<circle cx="87.5" cy="87.5" r="87.5" fill="#FF595E"/>
<path fill-rule="evenodd" clip-rule="evenodd" d="M77.0261 70.7716C75.133 68.8814 75.133 65.8137 77.0261 63.9234L90.5555 50.4146C92.4445 48.5285 95.5042 48.5285 97.3932 50.4146L105.857 58.8659C107.75 60.7561 107.75 63.8238 105.857 65.714L92.3279 79.2228C90.4389 81.109 87.3793 81.109 85.4903 79.2228L77.0261 70.7716Z" fill="#F7F7F7"/>
<path d="M97.1103 90.8274L110.644 104.341C112.533 106.227 115.593 106.227 117.482 104.341L117.58 104.243C119.443 102.382 119.477 99.3734 117.656 97.4718L110.244 89.7325C108.996 88.4296 108.996 86.377 110.244 85.0741L117.656 77.3348C119.477 75.4332 119.443 72.4244 117.58 70.564L117.482 70.4659C115.593 68.5798 112.533 68.5798 110.644 70.4659L97.1103 83.9792C95.2172 85.8695 95.2173 88.9372 97.1103 90.8274Z" fill="#F7F7F7"/>
<path d="M77.0232 110.884L90.5526 124.393C92.4416 126.279 95.5013 126.279 97.3903 124.393L105.857 115.939C107.75 114.049 107.75 110.981 105.857 109.091L92.3273 95.5824C90.4383 93.6963 87.3786 93.6963 85.4896 95.5824L77.0232 104.036C75.1301 105.926 75.1301 108.994 77.0232 110.884Z" fill="#F7F7F7"/>
<path d="M80.7054 83.9782L71.5936 74.8803C70.0624 73.3514 67.5823 73.3514 66.051 74.8803C64.6112 76.318 64.5678 78.6011 65.4637 80.4279C66.4283 82.395 66.9706 84.607 66.9706 86.9445C66.9706 89.382 66.382 91.68 65.341 93.7063C64.3256 95.6829 64.3161 98.1963 65.8886 99.7665C67.5083 101.384 70.1318 101.384 71.7516 99.7665L80.7054 90.8263C82.5985 88.9361 82.5985 85.8684 80.7054 83.9782Z" fill="#F7F7F7"/>
<path d="M47.4986 80.288C45.3788 81.7531 44.0007 84.191 44 86.9476C44.0012 91.4177 47.6308 95.041 52.108 95.041C56.5859 95.041 60.216 91.4165 60.216 86.9454C60.216 82.4743 56.5859 78.8497 52.108 78.8497C50.4384 78.8497 48.8866 79.3536 47.5969 80.2174C47.5646 80.2415 47.5319 80.265 47.4986 80.288Z" fill="#F7F7F7"/>
</svg>
